# xmcd
#
# Track frame offsets: 
#        150
#        27406
#        50213
#        69099
#        89775
#        107952
#        129111
#        150874
#
# Disc length: 2306 seconds
#
# Revision: 0
# Processed by: cddbd v1.5.2PL0 Copyright (c) Steve Scherf et al.
# Submitted via: ExactAudioCopy v0.99pb4
#
DISCID=63090008
DTITLE=Various Artist - Death Row Records Sampler
DYEAR=2008
DGENRE=Gangsta Rap
TTITLE0=Dr Dre - Let Me Ride (Remix)
TTITLE1=Snoop Dogg - Gin and Juice (Remix)
TTITLE2=Snoop Dogg - Who Am I (Remix)
TTITLE3=Dr Dre - Nuthin But A G Than (Remix)
TTITLE4=2Pac - I Get Around (Remix))
TTITLE5=Dr Dre - Fuck Wit Dre Day (Remix)
TTITLE6=Scarface - Smile For Me Now (Remix)
TTITLE7=Dr Dre - Lil Ghetto Boy (Remix)
EXTD=
EXTT0=
EXTT1=
EXTT2=
EXTT3=
EXTT4=
EXTT5=
EXTT6=
EXTT7=
PLAYORDER=
